<svg width="38" height="38" viewBox="0 0 38 38" fill="none" xmlns="http://www.w3.org/2000/svg">
<path d="M14.25 33.25H23.75" stroke="white" stroke-width="2.375" stroke-linecap="round" stroke-linejoin="round"/>
<path d="M8.34285 15.4374C8.34089 14.029 8.61769 12.6342 9.1573 11.3333C9.69692 10.0325 10.4887 8.85123 11.4869 7.85777C12.4852 6.8643 13.6702 6.07824 14.9737 5.54489C16.2771 5.01155 17.6733 4.74146 19.0816 4.75021C24.9582 4.79389 29.6588 9.67853 29.6588 15.5716V16.6249C29.6588 21.9413 30.771 25.0263 31.7507 26.7124C31.8562 26.8926 31.9124 27.0974 31.9135 27.3062C31.9146 27.515 31.8606 27.7204 31.757 27.9017C31.6534 28.083 31.5039 28.2337 31.3234 28.3388C31.143 28.4438 30.938 28.4994 30.7292 28.4999H7.27122C7.0624 28.4994 6.85741 28.4438 6.67694 28.3387C6.49647 28.2337 6.34689 28.0829 6.24331 27.9016C6.13972 27.7202 6.08578 27.5148 6.08693 27.306C6.08809 27.0972 6.14429 26.8924 6.24988 26.7122C7.23005 25.026 8.34284 21.941 8.34284 16.6249L8.34285 15.4374Z" stroke="white" stroke-width="2.375" stroke-linecap="round" stroke-linejoin="round"/>
</svg>
