<svg xmlns="http://www.w3.org/2000/svg" xmlns:xlink="http://www.w3.org/1999/xlink" width="36.002" height="36.002" viewBox="0 0 36.002 36.002">
  <defs>
    <clipPath id="clip-path">
      <path id="_Color" data-name="↳🎨 Color" d="M.1,33.63l3.19-9.572A16.887,16.887,0,0,1,1.8,17.1,17.1,17.1,0,0,1,11.251,1.813,16.893,16.893,0,0,1,18.9,0l1,0A17.081,17.081,0,0,1,36,16.2v.9a16.877,16.877,0,0,1-1.809,7.648A17.1,17.1,0,0,1,18.906,34.2a16.891,16.891,0,0,1-6.962-1.482l-9.572,3.19a1.822,1.822,0,0,1-.578.1A1.8,1.8,0,0,1,.1,33.63Z" transform="translate(0 0)" fill="#0263f5"/>
    </clipPath>
  </defs>
  <g id="Group_9" data-name="Group 9" transform="translate(0 0)">
    <path id="_Color-2" data-name="↳🎨 Color" d="M1.793,36a1.8,1.8,0,0,1-1.455-.756A1.773,1.773,0,0,1,.1,33.63l3.19-9.572A16.774,16.774,0,0,1,1.8,17.1,17.113,17.113,0,0,1,18.862,0H18.9l1,0A17.092,17.092,0,0,1,36,16.2v.9a17.106,17.106,0,0,1-17.1,17.1H18.86a16.782,16.782,0,0,1-6.917-1.482l-9.572,3.19A1.824,1.824,0,0,1,1.793,36ZM18.867,3.6A13.49,13.49,0,0,0,6.829,23.128a1.811,1.811,0,0,1,.1,1.38L4.649,31.352l6.844-2.281a1.789,1.789,0,0,1,.569-.092,1.812,1.812,0,0,1,.811.193,13.353,13.353,0,0,0,6,1.427H18.9a13.5,13.5,0,0,0,12.073-7.471A13.344,13.344,0,0,0,32.4,17.1l0-.805A13.491,13.491,0,0,0,28.494,7.52,13.294,13.294,0,0,0,19.8,3.6h-.935Z" transform="translate(0.001 0)" fill="#0263f5"/>
  </g>
</svg>
