<svg id="Flat" xmlns="http://www.w3.org/2000/svg" width="38.441" height="42.067" viewBox="0 0 38.441 42.067">
  <path id="Path_1" data-name="Path 1" d="M102.007,125l.828,3.577a1.921,1.921,0,1,1-3.792.392l.078-3.671-2.238-21.644-.828-3.577a1.921,1.921,0,1,1,3.792-.392l-.078,3.671Z" transform="translate(-91.654 -91.04)" fill="#ccdce4"/>
  <path id="Path_2" data-name="Path 2" d="M0,0H2.9V21.759H0Z" transform="translate(5.235 12.618) rotate(-5.91)" fill="#ff7272"/>
  <path id="Path_3" data-name="Path 3" d="M179.375,115.561l.455,3.643a1.921,1.921,0,1,1-3.812,0l.455-3.643V93.8l-.455-3.643a1.921,1.921,0,1,1,3.812,0l-.455,3.643Z" transform="translate(-164.398 -82.198)" fill="#ccdce4"/>
  <path id="Path_4" data-name="Path 4" d="M181.19,152h2.9v21.759h-2.9Z" transform="translate(-169.115 -140.395)" fill="#ff7272"/>
  <path id="Path_5" data-name="Path 5" d="M254.185,51.561l.455,3.643a1.921,1.921,0,1,1-3.812,0l.455-3.643V29.8l-.455-3.643a1.921,1.921,0,1,1,3.812,0l-.455,3.643Z" transform="translate(-232.426 -24)" fill="#ccdce4"/>
  <path id="Path_6" data-name="Path 6" d="M256,88h2.9v21.759H256Z" transform="translate(-237.142 -82.198)" fill="#ff7272"/>
  <path id="Path_7" data-name="Path 7" d="M300.054,124.9l.126,3.669a1.921,1.921,0,1,1-3.8-.343l.781-3.588,1.956-21.671-.126-3.669a1.921,1.921,0,1,1,3.8.342l-.781,3.588Z" transform="translate(-273.824 -90.667)" fill="#ccdce4"/>
  <path id="Path_8" data-name="Path 8" d="M0,0H21.759V2.9H0Z" transform="translate(23.343 33.975) rotate(-84.837)" fill="#ff7272"/>
  <path id="Path_9" data-name="Path 9" d="M72,224h29.012v5.8H72Z" transform="translate(-69.824 -205.868)" fill="#ccdce4"/>
  <path id="Path_10" data-name="Path 10" d="M81.364,284.308H49.451A1.451,1.451,0,0,1,48,282.858V264H81.364Z" transform="translate(-48 -242.241)" fill="#ff7272"/>
  <circle id="Ellipse_2" data-name="Ellipse 2" cx="3" cy="3" r="3" transform="translate(14 26)" fill="#ccdce4"/>
  <path id="Path_11" data-name="Path 11" d="M152,368h29.012v9.429a1.451,1.451,0,0,1-1.451,1.451H153.451A1.451,1.451,0,0,1,152,377.429Z" transform="translate(-142.571 -336.812)" fill="#ccdce4"/>
  <path id="Path_12" data-name="Path 12" d="M152,368h29.012v2.9H152Z" transform="translate(-142.571 -336.812)" fill="#abbac2"/>
</svg>
