<svg id="Flat5" xmlns="http://www.w3.org/2000/svg" width="18.858" height="42.067" viewBox="0 0 18.858 42.067">
  <path id="Path_42" data-name="Path 42" d="M258.154,236.334v11.6H248v-11.6l.47-7.986a4.615,4.615,0,0,1,9.215,0Z" transform="translate(-239.296 -205.871)" fill="#ccdce4"/>
  <path id="Path_43" data-name="Path 43" d="M250.9,243v12.373a2.883,2.883,0,0,1-.39,1.451H248v-11.6l.47-7.986a4.6,4.6,0,0,1,1.889-3.459Z" transform="translate(-239.296 -214.752)" fill="#92a5af"/>
  <path id="Path_44" data-name="Path 44" d="M248,456h10.154v2.9H248Z" transform="translate(-239.296 -416.834)" fill="#ff7272"/>
  <path id="Path_45" data-name="Path 45" d="M248,456h2.9v1.451a1.451,1.451,0,0,1-1.451,1.451H248Z" transform="translate(-239.296 -416.834)" fill="#d63434"/>
  <path id="Path_46" data-name="Path 46" d="M176,56h5.8V71.231H176Z" transform="translate(-173.824 -53.099)" fill="#ff7272"/>
  <path id="Path_47" data-name="Path 47" d="M162.154,212.33v12.33a1.451,1.451,0,0,1-1.451,1.451h-7.253A1.451,1.451,0,0,1,152,224.66V212.33l.725-12.33h8.7Z" transform="translate(-152 -184.043)" fill="#ccdce4"/>
  <path id="Path_48" data-name="Path 48" d="M200,392h1.451v1.451H200Z" transform="translate(-195.648 -358.636)" fill="#35505d"/>
  <path id="Path_49" data-name="Path 49" d="M192,424h2.9v1.451H192Z" transform="translate(-188.373 -387.735)" fill="#35505d"/>
  <path id="Path_50" data-name="Path 50" d="M152,336h10.154v2.9H152Z" transform="translate(-152 -307.713)" fill="#ff7272"/>
  <path id="Path_51" data-name="Path 51" d="M181.8,24v2.9a2.9,2.9,0,1,1-2.9-2.9Z" transform="translate(-173.824 -24)" fill="#d63434"/>
</svg>
