<svg width="35" height="36" viewBox="0 0 35 36" fill="none" xmlns="http://www.w3.org/2000/svg">
<path d="M21.8396 32.728V24.2519C21.8396 23.8773 21.6908 23.518 21.4259 23.253C21.161 22.9881 20.8016 22.8393 20.427 22.8393H14.7764C14.4017 22.8393 14.0424 22.9881 13.7775 23.253C13.5125 23.518 13.3637 23.8773 13.3637 24.2519V32.728C13.3637 33.1027 13.2149 33.462 12.95 33.7269C12.6851 33.9918 12.3258 34.1407 11.9512 34.1407L3.47631 34.1418C3.29078 34.1418 3.10707 34.1053 2.93565 34.0343C2.76424 33.9634 2.60849 33.8593 2.4773 33.7281C2.3461 33.5969 2.24203 33.4412 2.17103 33.2698C2.10002 33.0984 2.06348 32.9147 2.06348 32.7292V16.4023C2.06348 16.2055 2.1046 16.0109 2.18421 15.8309C2.26383 15.6509 2.38017 15.4895 2.52579 15.3571L16.6514 2.51345C16.9114 2.27702 17.2502 2.14601 17.6017 2.146C17.9531 2.14598 18.292 2.27698 18.552 2.51339L32.6795 15.3571C32.8252 15.4895 32.9415 15.6509 33.0212 15.8309C33.1008 16.0109 33.1419 16.2055 33.1419 16.4024V32.7292C33.1419 32.9147 33.1054 33.0984 33.0344 33.2698C32.9634 33.4412 32.8593 33.597 32.7281 33.7281C32.5969 33.8593 32.4412 33.9634 32.2697 34.0343C32.0983 34.1053 31.9146 34.1418 31.7291 34.1418L23.2521 34.1407C22.8775 34.1407 22.5182 33.9918 22.2533 33.7269C21.9884 33.462 21.8396 33.1027 21.8396 32.728V32.728Z" stroke="#4E4E4E" stroke-width="2.82531" stroke-linecap="round" stroke-linejoin="round"/>
</svg>
