<svg width="46" height="46" viewBox="0 0 46 46" fill="none" xmlns="http://www.w3.org/2000/svg">
<path d="M26.8396 36.728V28.2519C26.8396 27.8773 26.6908 27.518 26.4259 27.253C26.161 26.9881 25.8016 26.8393 25.427 26.8393H19.7764C19.4017 26.8393 19.0424 26.9881 18.7775 27.253C18.5125 27.518 18.3637 27.8773 18.3637 28.2519V36.728C18.3637 37.1027 18.2149 37.462 17.95 37.7269C17.6851 37.9918 17.3258 38.1407 16.9512 38.1407L8.47631 38.1418C8.29078 38.1418 8.10707 38.1053 7.93565 38.0343C7.76424 37.9634 7.60849 37.8593 7.4773 37.7281C7.3461 37.5969 7.24203 37.4412 7.17103 37.2698C7.10002 37.0984 7.06348 36.9147 7.06348 36.7292V20.4023C7.06348 20.2055 7.1046 20.0109 7.18421 19.8309C7.26383 19.6509 7.38017 19.4895 7.52579 19.3571L21.6514 6.51345C21.9114 6.27702 22.2502 6.14601 22.6017 6.146C22.9531 6.14598 23.292 6.27698 23.552 6.51339L37.6795 19.3571C37.8252 19.4895 37.9415 19.6509 38.0212 19.8309C38.1008 20.0109 38.1419 20.2055 38.1419 20.4024V36.7292C38.1419 36.9147 38.1054 37.0984 38.0344 37.2698C37.9634 37.4412 37.8593 37.597 37.7281 37.7281C37.5969 37.8593 37.4412 37.9634 37.2697 38.0343C37.0983 38.1053 36.9146 38.1418 36.7291 38.1418L28.2521 38.1407C27.8775 38.1407 27.5182 37.9918 27.2533 37.7269C26.9884 37.462 26.8396 37.1027 26.8396 36.728V36.728Z" stroke="white" stroke-width="2.82531" stroke-linecap="round" stroke-linejoin="round"/>
</svg>
