<svg width="1056" height="1043" viewBox="0 0 1056 1043" fill="none" xmlns="http://www.w3.org/2000/svg">
<g opacity="0.04">
<path d="M0.210022 56.9669V1008.93C0.210022 1027.65 15.3888 1042.84 34.1186 1042.84H209.729C228.469 1042.84 243.647 1027.65 243.647 1008.93V210.563C243.647 200.778 239.43 191.482 232.069 185.048L56.449 31.4519C49.7747 25.6251 41.9565 23 34.3174 23C16.821 23 0.210022 36.7022 0.210022 56.9669" fill="url(#paint0_linear)"/>
<path d="M998.814 31.4519L823.203 185.048C815.843 191.482 811.615 200.778 811.615 210.563V1008.93C811.615 1027.65 826.794 1042.84 845.524 1042.84H1021.14C1039.86 1042.84 1055.05 1027.65 1055.05 1008.93V56.9669C1055.05 36.7022 1038.44 23 1020.94 23C1013.3 23 1005.48 25.6251 998.814 31.4519" fill="url(#paint1_linear)"/>
<path d="M998.631 31.5927L811.612 195.023L312.69 629.401C305.27 635.865 301.022 645.221 301.022 655.055V902.826C301.022 932.029 335.399 947.661 357.401 928.48L811.612 532.582L1043.39 330.552C1050.79 324.089 1055.05 314.742 1055.05 304.918V57.2068C1055.05 36.8626 1038.38 23.121 1020.83 23.121C1013.16 23.121 1005.33 25.7459 998.631 31.5927Z" fill="url(#paint2_linear)"/>
<path d="M32.2675 0.0794783C31.9691 0.0794783 31.6805 0.109216 31.392 0.109216C30.7057 0.17882 30.0194 0.248363 29.333 0.357741C28.3881 0.506892 27.4532 0.685893 26.5381 0.874818C26.5082 0.904648 26.4684 0.90486 26.4286 0.90486C26.3192 0.944633 26.2495 0.944519 26.1401 0.974349C24.3298 1.41186 22.5493 1.98851 20.8484 2.76409C19.9433 3.15189 19.0679 3.57952 18.1628 4.01703C17.5162 4.34517 16.8996 4.74276 16.2531 5.11066C6.78375 10.8281 0 21.0899 0 34.0661V281.836C0 283.069 0.0795246 284.302 0.228727 285.495C1.13389 293.977 5.23196 301.842 11.7173 307.49L91.0232 376.229H91.063L272.085 533.056C284.916 544.183 303.944 544.143 316.736 533.017L406.377 455.011L581.231 303.721L485.076 328.332C455.454 335.898 423.992 328.431 400.975 308.365L304.561 224.443L64.3359 15.3326L56.4082 8.44193C55.7517 7.86521 55.1053 7.35806 54.409 6.85094C53.7923 6.37366 53.1756 5.946 52.5191 5.50848C51.6537 4.93177 50.7884 4.38484 49.8832 3.9175H49.8434C49.1571 3.5496 48.4708 3.19173 47.7845 2.90337C47.0882 2.57524 46.4018 2.28683 45.6757 2.03824C45.2082 1.84932 44.7406 1.70012 44.2731 1.56092C43.7857 1.37199 43.3183 1.26285 42.8508 1.12365C42.3833 1.01427 41.9058 0.904692 41.4085 0.795315C39.061 0.268313 36.7036 -2.53855e-05 34.3761 -2.53855e-05C33.6699 -2.53855e-05 32.9637 0.0198178 32.2675 0.0794783" fill="url(#paint3_linear)"/>
<path d="M32.2696 23.0891C31.9712 23.0891 31.6826 23.1188 31.3941 23.1188C30.7078 23.1884 30.0214 23.258 29.3351 23.3673C28.3902 23.5165 27.4553 23.6955 26.5402 23.8844C26.5103 23.9142 26.4705 23.9145 26.4307 23.9145C26.3213 23.9542 26.2516 23.9541 26.1422 23.9839C24.3319 24.4612 22.5514 25.0478 20.8505 25.7737C19.9454 26.1615 19.07 26.5891 18.1649 27.0266C17.5183 27.3548 16.9017 27.7523 16.2552 28.1203C6.93505 33.8874 0.230835 44.1292 0.230835 56.9661V308.505C1.13599 316.987 5.23406 324.852 11.7194 330.5L91.0253 399.239H91.065C148.667 384.493 200.709 356.084 243.659 317.673C266.835 296.991 287.335 273.395 304.563 247.452L64.338 38.3422L56.4103 31.4515C55.7538 30.8748 55.1074 30.3677 54.4111 29.8605C53.7944 29.3833 53.1777 28.9556 52.5212 28.5181C51.6558 27.9414 50.7905 27.3944 49.8853 26.9271H49.8455C49.1592 26.5592 48.4729 26.2013 47.7865 25.913C47.0903 25.5848 46.4039 25.2964 45.6778 25.0478C45.2103 24.8589 44.7427 24.7097 44.2752 24.5705C43.7878 24.3816 43.3204 24.2724 42.8529 24.1332C42.3854 24.0239 41.9079 23.9143 41.4106 23.8049C39.0631 23.2779 36.7057 23.0096 34.3782 23.0096C33.672 23.0096 32.9658 23.0294 32.2696 23.0891" fill="url(#paint4_linear)"/>
<path d="M1013.88 23.8049C1013.37 23.9143 1012.9 24.0239 1012.42 24.1332C1011.95 24.2724 1011.48 24.3816 1011.02 24.5705C1010.54 24.7097 1010.06 24.8589 1009.6 25.0478C1008.88 25.2964 1008.18 25.5848 1007.5 25.913C1006.81 26.2013 1006.12 26.5592 1005.43 26.9271H1005.39C1004.49 27.3944 1003.62 27.9414 1002.75 28.5181C1002.09 28.9556 1001.48 29.3833 1000.86 29.8605C1000.18 30.3677 999.521 30.8748 998.864 31.4515L990.937 38.3422L750.712 247.452C767.94 273.395 788.451 296.991 811.617 317.673C854.567 356.084 906.618 384.493 964.21 399.239H964.26L1043.57 330.5C1050.05 324.852 1054.15 316.987 1055.05 308.505V56.9661C1055.05 44.1292 1048.35 33.8874 1039.03 28.1203C1038.38 27.7523 1037.77 27.3548 1037.11 27.0266C1036.2 26.5891 1035.34 26.1615 1034.43 25.7737C1032.72 25.0478 1030.95 24.4612 1029.13 23.9839C1029.02 23.9541 1028.95 23.9542 1028.84 23.9145C1028.81 23.9145 1028.77 23.9142 1028.74 23.8844C1027.83 23.6955 1026.88 23.5165 1025.95 23.3673C1025.26 23.258 1024.57 23.1884 1023.88 23.1188C1023.59 23.1188 1023.29 23.0891 1023.02 23.0891C1022.31 23.0294 1021.61 23.0096 1020.91 23.0096C1018.58 23.0096 1016.22 23.2779 1013.88 23.8049" fill="url(#paint5_linear)"/>
</g>
<defs>
<linearGradient id="paint0_linear" x1="121.929" y1="1040.83" x2="121.929" y2="115.465" gradientUnits="userSpaceOnUse">
<stop stop-color="white"/>
<stop offset="0.634357" stop-color="white"/>
<stop offset="1" stop-color="white"/>
</linearGradient>
<linearGradient id="paint1_linear" x1="933.335" y1="83.2932" x2="933.335" y2="1007.5" gradientUnits="userSpaceOnUse">
<stop stop-color="white"/>
<stop offset="0.365643" stop-color="white"/>
<stop offset="1" stop-color="white"/>
</linearGradient>
<linearGradient id="paint2_linear" x1="289.946" y1="811.306" x2="1031.03" y2="178.251" gradientUnits="userSpaceOnUse">
<stop stop-color="white"/>
<stop offset="0.5296" stop-color="white"/>
<stop offset="0.947909" stop-color="white"/>
<stop offset="1" stop-color="white"/>
</linearGradient>
<linearGradient id="paint3_linear" x1="4.5006" y1="25.5535" x2="539.055" y2="538.685" gradientUnits="userSpaceOnUse">
<stop stop-color="white"/>
<stop offset="0.932292" stop-color="white"/>
<stop offset="1" stop-color="#FCFCFC"/>
</linearGradient>
<linearGradient id="paint4_linear" x1="2.79084" y1="211.124" x2="86.7805" y2="211.124" gradientUnits="userSpaceOnUse">
<stop stop-color="white"/>
<stop offset="0.773545" stop-color="white"/>
<stop offset="1" stop-color="white"/>
</linearGradient>
<linearGradient id="paint5_linear" x1="1052.49" y1="211.124" x2="968.5" y2="211.124" gradientUnits="userSpaceOnUse">
<stop stop-color="white"/>
<stop offset="0.773545" stop-color="white" stop-opacity="0.85"/>
<stop offset="1" stop-color="white"/>
<stop offset="1" stop-color="white"/>
</linearGradient>
</defs>
</svg>
