<svg width="247" height="256" viewBox="0 0 247 256" fill="none" xmlns="http://www.w3.org/2000/svg">
<path d="M208.531 207.403C208.809 206.732 208.952 206.014 208.952 205.288V166.59H169.27V205.288C169.27 206.015 169.413 206.735 169.692 207.406C169.97 208.078 170.379 208.688 170.894 209.201C171.408 209.715 172.02 210.121 172.692 210.398C173.364 210.675 174.084 210.817 174.811 210.815H203.425C204.151 210.815 204.87 210.672 205.54 210.394C206.211 210.116 206.82 209.709 207.333 209.196C207.846 208.683 208.253 208.073 208.531 207.403Z" fill="url(#paint0_linear)"/>
<path d="M169.767 72.6697C169.44 73.3892 169.27 74.1703 169.27 74.9608V134.774H208.952V49.8863C208.952 48.8238 208.646 47.7838 208.07 46.8907C207.495 45.9977 206.674 45.2894 205.706 44.8509C204.739 44.4123 203.665 44.2619 202.614 44.4178C201.563 44.5737 200.579 45.0292 199.781 45.7298L171.167 70.7892C170.572 71.309 170.094 71.9502 169.767 72.6697Z" fill="url(#paint1_linear)"/>
<path d="M38.453 209.197C37.4165 208.16 36.8341 206.754 36.8341 205.288V166.172H76.5012V205.288C76.5012 206.754 75.9189 208.16 74.8824 209.197C73.8459 210.233 72.4403 210.815 70.9744 210.815H42.3609C40.8951 210.815 39.4895 210.233 38.453 209.197Z" fill="url(#paint2_linear)"/>
<path d="M76.0122 72.6717C76.337 73.3913 76.5036 74.1721 76.5012 74.9615V135.194H36.8341V49.887C36.8339 48.8246 37.1398 47.7845 37.7154 46.8915C38.291 45.9984 39.1118 45.2902 40.0796 44.8516C41.0473 44.413 42.121 44.2627 43.172 44.4186C44.223 44.5745 45.2065 45.0299 46.0053 45.7305L74.6188 70.79C75.2123 71.3105 75.6875 71.9522 76.0122 72.6717Z" fill="url(#paint3_linear)"/>
<g filter="url(#filter0_d)">
<path d="M131.634 93.9213L115.942 97.9423C113.562 98.5522 111.069 98.5733 108.679 98.004C106.288 97.4346 104.072 96.2918 102.223 94.6743L45.9895 45.7302C45.1885 45.0258 44.2014 44.5676 43.1463 44.4105C42.0913 44.2534 41.0132 44.4041 40.0417 44.8446C39.0702 45.285 38.2467 45.9964 37.6695 46.8935C37.0924 47.7905 36.7864 48.8351 36.7882 49.9017V90.3522C36.7904 91.146 36.9621 91.9301 37.2919 92.6522C37.6218 93.3742 38.1022 94.0174 38.7008 94.5388L81.1843 131.36C82.1953 132.238 83.4894 132.722 84.8286 132.722C86.1679 132.722 87.4619 132.238 88.473 131.36L103.096 118.619L131.634 93.9213Z" fill="white"/>
</g>
<g filter="url(#filter1_d)">
<path d="M159.297 80.9851C167.451 93.2602 179.859 102.084 194.13 105.758L207.081 94.5389C208.133 93.6218 208.799 92.3418 208.948 90.9546V49.8868C208.958 48.945 208.724 48.0168 208.267 47.1931C207.81 46.3695 207.147 45.6786 206.343 45.1881C206.241 45.1223 206.136 45.062 206.027 45.0074L205.59 44.7966C205.307 44.6787 205.015 44.583 204.717 44.5104V44.5104L204.265 44.4201H203.919H203.783C203.278 44.3837 202.77 44.4243 202.277 44.5405H202.036H201.81L201.584 44.6159L201.238 44.7665C201.123 44.8126 201.013 44.868 200.907 44.9321V44.9321L200.47 45.1881L200.169 45.399C200.063 45.4893 199.943 45.5646 199.838 45.67L198.542 46.7845L159.297 80.9851Z" fill="url(#paint4_linear)"/>
</g>
<g filter="url(#filter2_d)">
<path fill-rule="evenodd" clip-rule="evenodd" d="M208.95 49.9315V90.3669C208.95 90.6049 208.934 90.842 208.904 91.0769V90.9543C208.755 92.3415 208.088 93.6215 207.036 94.5386L169.221 127.339V127.581L160.971 134.775H97.6331L169.223 72.4157L199.719 45.7449C200.522 45.0368 201.513 44.5759 202.572 44.4176C203.631 44.2593 204.713 44.4104 205.688 44.8527C206.664 45.295 207.49 46.0096 208.069 46.9106C208.648 47.8117 208.953 48.8607 208.95 49.9315ZM85.912 166.591V188.029C85.9101 189.096 86.2162 190.14 86.7933 191.038C87.3704 191.935 88.1944 192.646 89.1659 193.086C90.1374 193.527 91.2151 193.678 92.2701 193.52C93.3251 193.363 94.3126 192.905 95.1137 192.201L124.483 166.591H85.912Z" fill="#FEFEFE"/>
</g>
<path d="M63.6209 152.006C63.6209 152.395 63.5958 152.747 63.5456 153.061H55.6158C55.6786 153.889 55.9862 154.555 56.5387 155.057C57.0912 155.559 57.7693 155.811 58.573 155.811C59.7282 155.811 60.5444 155.327 61.0216 154.36H63.3384C63.0245 155.315 62.4531 156.099 61.6244 156.715C60.8081 157.317 59.791 157.619 58.573 157.619C57.581 157.619 56.6894 157.399 55.8983 156.96C55.1198 156.508 54.5045 155.88 54.0524 155.076C53.6129 154.26 53.3932 153.318 53.3932 152.251C53.3932 151.183 53.6066 150.248 54.0336 149.444C54.4731 148.628 55.0821 148 55.8606 147.561C56.6517 147.121 57.5559 146.901 58.573 146.901C59.5524 146.901 60.4251 147.115 61.1911 147.542C61.9571 147.969 62.5536 148.571 62.9805 149.35C63.4075 150.116 63.6209 151.001 63.6209 152.006ZM61.3795 151.328C61.3669 150.537 61.0844 149.902 60.5319 149.425C59.9794 148.948 59.295 148.71 58.4788 148.71C57.7379 148.71 57.1038 148.948 56.5764 149.425C56.049 149.89 55.7351 150.524 55.6346 151.328H61.3795ZM97.5098 144.359V157.449H95.3625V148.484L91.3694 157.449H89.8813L85.8693 148.484V157.449H83.7221V144.359H86.0389L90.6348 154.624L95.2118 144.359H97.5098ZM126.212 154.775H120.731L119.789 157.449H117.548L122.238 144.34H124.724L129.414 157.449H127.154L126.212 154.775ZM125.609 153.023L123.481 146.939L121.334 153.023H125.609ZM158.916 148.126C158.577 147.473 158.106 146.983 157.503 146.656C156.9 146.317 156.204 146.148 155.412 146.148C154.546 146.148 153.774 146.343 153.096 146.732C152.418 147.121 151.884 147.674 151.495 148.389C151.118 149.105 150.93 149.934 150.93 150.876C150.93 151.817 151.118 152.653 151.495 153.381C151.884 154.097 152.418 154.649 153.096 155.038C153.774 155.428 154.546 155.622 155.412 155.622C156.58 155.622 157.528 155.296 158.257 154.643C158.985 153.99 159.431 153.105 159.594 151.987H154.678V150.273H161.892V151.949C161.754 152.966 161.39 153.902 160.799 154.756C160.222 155.61 159.462 156.294 158.52 156.809C157.591 157.311 156.555 157.562 155.412 157.562C154.182 157.562 153.058 157.28 152.041 156.715C151.024 156.137 150.214 155.34 149.611 154.323C149.021 153.305 148.726 152.156 148.726 150.876C148.726 149.595 149.021 148.446 149.611 147.429C150.214 146.412 151.024 145.621 152.041 145.055C153.071 144.478 154.194 144.189 155.412 144.189C156.806 144.189 158.043 144.534 159.123 145.225C160.216 145.903 161.007 146.87 161.496 148.126H158.916ZM184.07 155.585H190.154V157.449H181.527V155.773L187.592 146.223H181.527V144.359H190.154V146.035L184.07 155.585Z" fill="#FEFEFE"/>
<path d="M123.659 254.588H245.319V128.294M2.0001 128.294V2H123.659" stroke="white" stroke-width="2.31732"/>
<path d="M84.8891 80.8197C76.8589 92.8827 64.6578 101.556 50.6259 105.177V105.177L37.9068 94.1459C36.863 93.2439 36.2013 91.9788 36.0559 90.607V50.3026C36.0509 49.3738 36.2854 48.4595 36.7367 47.6477C37.188 46.8359 37.8408 46.1541 38.6323 45.6681L38.9285 45.5052L39.3727 45.2979C39.6453 45.1799 39.9277 45.0858 40.2167 45.0166V45.0166H40.6609H41.0014H41.1347C41.6314 44.9727 42.132 45.0127 42.6154 45.135H42.8523L43.0744 45.2091H43.3113L43.6371 45.3423L43.9776 45.5052C44.1272 45.5832 44.2707 45.6723 44.407 45.7717L44.7032 45.979L45.0289 46.2307L46.3023 47.3412L84.8891 80.8197Z" fill="url(#paint5_linear)"/>
<path d="M160.908 80.8196C168.935 92.8787 181.13 101.552 195.156 105.177L207.875 94.1458C208.913 93.2393 209.574 91.9766 209.726 90.607V50.3026C209.748 49.3694 209.527 48.4466 209.086 47.6241C208.645 46.8015 207.998 46.1072 207.209 45.6088L206.898 45.4459L206.469 45.2386C206.195 45.1228 205.913 45.0287 205.625 44.9573V44.9573H205.166H204.84H204.692C204.195 44.9134 203.695 44.9534 203.211 45.0757H202.989L202.752 45.1498H202.53L202.189 45.283L201.864 45.4459C201.712 45.5206 201.568 45.6098 201.434 45.7124L201.123 45.9197L200.812 46.1714L199.539 47.282L160.908 80.8196Z" fill="url(#paint6_linear)"/>
<defs>
<filter id="filter0_d" x="30.8654" y="44.3501" width="106.692" height="100.217" filterUnits="userSpaceOnUse" color-interpolation-filters="sRGB">
<feFlood flood-opacity="0" result="BackgroundImageFix"/>
<feColorMatrix in="SourceAlpha" type="matrix" values="0 0 0 0 0 0 0 0 0 0 0 0 0 0 0 0 0 0 127 0"/>
<feOffset dy="5.92276"/>
<feGaussianBlur stdDeviation="2.96138"/>
<feColorMatrix type="matrix" values="0 0 0 0 0 0 0 0 0 0 0 0 0 0 0 0 0 0 0.25 0"/>
<feBlend mode="normal" in2="BackgroundImageFix" result="effect1_dropShadow"/>
<feBlend mode="normal" in="SourceGraphic" in2="effect1_dropShadow" result="shape"/>
</filter>
<filter id="filter1_d" x="155.948" y="44.4072" width="56.3503" height="80.6083" filterUnits="userSpaceOnUse" color-interpolation-filters="sRGB">
<feFlood flood-opacity="0" result="BackgroundImageFix"/>
<feColorMatrix in="SourceAlpha" type="matrix" values="0 0 0 0 0 0 0 0 0 0 0 0 0 0 0 0 0 0 127 0"/>
<feOffset dy="15.908"/>
<feGaussianBlur stdDeviation="1.67453"/>
<feColorMatrix type="matrix" values="0 0 0 0 0 0 0 0 0 0 0 0 0 0 0 0 0 0 0.25 0"/>
<feBlend mode="normal" in2="BackgroundImageFix" result="effect1_dropShadow"/>
<feBlend mode="normal" in="SourceGraphic" in2="effect1_dropShadow" result="shape"/>
</filter>
<filter id="filter2_d" x="79.9892" y="44.3566" width="134.884" height="161.07" filterUnits="userSpaceOnUse" color-interpolation-filters="sRGB">
<feFlood flood-opacity="0" result="BackgroundImageFix"/>
<feColorMatrix in="SourceAlpha" type="matrix" values="0 0 0 0 0 0 0 0 0 0 0 0 0 0 0 0 0 0 127 0"/>
<feOffset dy="5.92276"/>
<feGaussianBlur stdDeviation="2.96138"/>
<feColorMatrix type="matrix" values="0 0 0 0 0 0 0 0 0 0 0 0 0 0 0 0 0 0 0.25 0"/>
<feBlend mode="normal" in2="BackgroundImageFix" result="effect1_dropShadow"/>
<feBlend mode="normal" in="SourceGraphic" in2="effect1_dropShadow" result="shape"/>
</filter>
<linearGradient id="paint0_linear" x1="189.111" y1="44.358" x2="189.111" y2="210.815" gradientUnits="userSpaceOnUse">
<stop offset="0.322917" stop-color="white"/>
<stop offset="0.875" stop-color="white"/>
</linearGradient>
<linearGradient id="paint1_linear" x1="189.111" y1="44.358" x2="189.111" y2="210.815" gradientUnits="userSpaceOnUse">
<stop offset="0.322917" stop-color="white"/>
<stop offset="0.875" stop-color="white"/>
</linearGradient>
<linearGradient id="paint2_linear" x1="56.4396" y1="73.8301" x2="56.4396" y2="242.522" gradientUnits="userSpaceOnUse">
<stop offset="0.203438" stop-color="white"/>
<stop offset="0.708333" stop-color="#F0F0F0"/>
<stop offset="0.916667" stop-color="#E1E1E1"/>
</linearGradient>
<linearGradient id="paint3_linear" x1="56.4396" y1="73.8301" x2="56.4396" y2="242.522" gradientUnits="userSpaceOnUse">
<stop offset="0.203438" stop-color="white"/>
<stop offset="0.708333" stop-color="#F0F0F0"/>
<stop offset="0.916667" stop-color="#E1E1E1"/>
</linearGradient>
<linearGradient id="paint4_linear" x1="262727" y1="20911.2" x2="262275" y2="20911.2" gradientUnits="userSpaceOnUse">
<stop stop-color="#3AA1E2"/>
<stop offset="0.14" stop-color="white" stop-opacity="0.83"/>
<stop offset="0.44" stop-color="white" stop-opacity="0.48"/>
<stop offset="0.69" stop-color="white" stop-opacity="0.22"/>
<stop offset="0.89" stop-color="white" stop-opacity="0.06"/>
<stop offset="1" stop-color="#F7F7F7" stop-opacity="0"/>
</linearGradient>
<linearGradient id="paint5_linear" x1="36.4705" y1="74.9857" x2="49.9448" y2="74.9857" gradientUnits="userSpaceOnUse">
<stop stop-color="#A2ADB4"/>
<stop offset="0.14" stop-color="#A2ADB4" stop-opacity="0.83"/>
<stop offset="0.44" stop-color="#A2ADB4" stop-opacity="0.48"/>
<stop offset="0.69" stop-color="#A2ADB4" stop-opacity="0.22"/>
<stop offset="0.89" stop-color="#A2ADB4" stop-opacity="0.06"/>
<stop offset="1" stop-color="#A2ADB4" stop-opacity="0"/>
</linearGradient>
<linearGradient id="paint6_linear" x1="221.853" y1="58.0841" x2="190.758" y2="58.0841" gradientUnits="userSpaceOnUse">
<stop offset="0.482245" stop-color="#A2ADB4"/>
<stop offset="0.965253" stop-color="white" stop-opacity="0"/>
</linearGradient>
</defs>
</svg>
