<svg width="24" height="24" viewBox="0 0 24 24" fill="none" xmlns="http://www.w3.org/2000/svg">
<path d="M9.14752 19.6929H4.77889C4.58578 19.6929 4.40058 19.6162 4.26404 19.4796C4.12749 19.3431 4.05078 19.1579 4.05078 18.9648V14.8977C4.05078 14.8021 4.06961 14.7074 4.1062 14.6191C4.1428 14.5308 4.19643 14.4505 4.26404 14.3829L15.1856 3.4613C15.3222 3.32476 15.5074 3.24805 15.7005 3.24805C15.8936 3.24805 16.0788 3.32476 16.2153 3.4613L20.2824 7.52834C20.4189 7.66489 20.4956 7.85009 20.4956 8.04319C20.4956 8.2363 20.4189 8.42149 20.2824 8.55804L9.14752 19.6929Z" stroke="black" stroke-width="1.45621" stroke-linecap="round" stroke-linejoin="round"/>
<path d="M12.7881 5.85791L17.8848 10.9546" stroke="black" stroke-width="1.45621" stroke-linecap="round" stroke-linejoin="round"/>
</svg>
