<svg width="182" height="182" viewBox="0 0 182 182" fill="none" xmlns="http://www.w3.org/2000/svg">
<circle cx="91" cy="91" r="91" fill="url(#paint0_linear)"/>
<circle cx="91" cy="91" r="91" fill="url(#paint1_linear)"/>
<path d="M78 109.625C86.9746 109.625 94.25 102.35 94.25 93.375C94.25 84.4004 86.9746 77.125 78 77.125C69.0254 77.125 61.75 84.4004 61.75 93.375C61.75 102.35 69.0254 109.625 78 109.625Z" stroke="#F7F7F7" stroke-width="4.0625" stroke-miterlimit="10"/>
<path d="M53.3683 123.841C55.8656 119.519 59.4565 115.929 63.7801 113.434C68.1038 110.939 73.0081 109.625 78.0002 109.625C82.9924 109.625 87.8966 110.939 92.2203 113.434C96.5439 115.93 100.135 119.519 102.632 123.842" stroke="#F7F7F7" stroke-width="4.0625" stroke-linecap="round" stroke-linejoin="round"/>
<defs>
<linearGradient id="paint0_linear" x1="173.5" y1="3.63357e-06" x2="-51.6664" y2="138.147" gradientUnits="userSpaceOnUse">
<stop stop-color="#FDCC4B"/>
<stop offset="0.15625" stop-color="#FFC64B"/>
<stop offset="0.569852" stop-color="#FFA34C"/>
<stop offset="0.822917" stop-color="#F99952"/>
<stop offset="0.993897" stop-color="#FF9856"/>
</linearGradient>
<linearGradient id="paint1_linear" x1="173.5" y1="3.63357e-06" x2="-51.6664" y2="138.147" gradientUnits="userSpaceOnUse">
<stop stop-color="#FDCC4B"/>
<stop offset="0.15625" stop-color="#FFC64B"/>
<stop offset="0.569852" stop-color="#FFA34C"/>
<stop offset="0.822917" stop-color="#F99952"/>
<stop offset="0.993897" stop-color="#FF9856"/>
</linearGradient>
</defs>
</svg>
