<svg width="35" height="36" viewBox="0 0 35 36" fill="#fff" xmlns="http://www.w3.org/2000/svg">
<path d="M21.8394 32.7279V24.2518C21.8394 23.8772 21.6906 23.5178 21.4257 23.2529C21.1608 22.988 20.8014 22.8392 20.4268 22.8392H14.7762C14.4015 22.8392 14.0422 22.988 13.7773 23.2529C13.5123 23.5178 13.3635 23.8772 13.3635 24.2518V32.7279C13.3635 33.1026 13.2147 33.4619 12.9498 33.7268C12.6849 33.9917 12.3257 34.1405 11.951 34.1406L3.47612 34.1417C3.29059 34.1417 3.10688 34.1052 2.93546 34.0342C2.76405 33.9632 2.6083 33.8592 2.47711 33.728C2.34591 33.5968 2.24184 33.4411 2.17083 33.2697C2.09983 33.0983 2.06329 32.9146 2.06329 32.7291V16.4022C2.06329 16.2054 2.10441 16.0108 2.18402 15.8308C2.26364 15.6508 2.37998 15.4894 2.5256 15.357L16.6512 2.51335C16.9112 2.27692 17.25 2.1459 17.6015 2.14589C17.9529 2.14588 18.2918 2.27687 18.5518 2.51328L32.6793 15.357C32.825 15.4894 32.9413 15.6508 33.021 15.8308C33.1006 16.0108 33.1417 16.2054 33.1417 16.4023V32.7291C33.1417 32.9146 33.1052 33.0983 33.0342 33.2697C32.9632 33.4411 32.8591 33.5968 32.7279 33.728C32.5967 33.8592 32.441 33.9633 32.2696 34.0342C32.0981 34.1052 31.9144 34.1417 31.7289 34.1417L23.2519 34.1406C22.8773 34.1406 22.518 33.9917 22.2531 33.7268C21.9882 33.4619 21.8394 33.1026 21.8394 32.7279V32.7279Z" stroke="black" stroke-width="2.82531" stroke-linecap="round" stroke-linejoin="round"/>
</svg>
