<svg width="1357" height="1337" viewBox="0 0 1357 1337" fill="none" xmlns="http://www.w3.org/2000/svg">
<g opacity="0.1">
<path d="M1141.72 1081.34C1143.3 1077.54 1144.1 1073.47 1144.1 1069.36V850.191H919.355V1069.36C919.355 1073.48 920.168 1077.56 921.746 1081.36C923.324 1085.16 925.638 1088.62 928.553 1091.53C931.469 1094.44 934.931 1096.74 938.738 1098.31C942.546 1099.88 946.625 1100.68 950.743 1100.67H1112.8C1116.91 1100.67 1120.98 1099.86 1124.78 1098.28C1128.58 1096.71 1132.03 1094.4 1134.94 1091.5C1137.84 1088.59 1140.15 1085.14 1141.72 1081.34Z" fill="url(#paint0_linear_1_1387)"/>
<path d="M922.173 318.251C920.319 322.326 919.358 326.75 919.355 331.227V669.994H1144.1V189.212C1144.11 183.195 1142.37 177.304 1139.11 172.246C1135.85 167.188 1131.2 163.177 1125.72 160.693C1120.24 158.209 1114.16 157.357 1108.21 158.24C1102.26 159.123 1096.69 161.703 1092.16 165.671L930.103 307.601C926.73 310.545 924.027 314.176 922.173 318.251Z" fill="url(#paint1_linear_1_1387)"/>
<path d="M178.474 1091.5C172.604 1085.63 169.306 1077.67 169.306 1069.37V847.828H393.969V1069.37C393.969 1077.67 390.671 1085.63 384.8 1091.5C378.93 1097.38 370.969 1100.67 362.667 1100.67H200.608C192.306 1100.67 184.345 1097.38 178.474 1091.5Z" fill="url(#paint2_linear_1_1387)"/>
<path d="M391.2 318.266C393.039 322.342 393.982 326.764 393.969 331.235V672.373H169.306V189.22C169.304 183.203 171.037 177.312 174.297 172.254C177.557 167.196 182.206 163.185 187.687 160.701C193.168 158.217 199.249 157.365 205.202 158.248C211.154 159.131 216.724 161.711 221.248 165.679L383.307 307.608C386.669 310.557 389.361 314.191 391.2 318.266Z" fill="url(#paint3_linear_1_1387)"/>
<g filter="url(#filter0_d_1_1387)">
<path d="M706.201 438.619L617.325 461.393C603.844 464.847 589.724 464.967 576.186 461.742C562.648 458.517 550.098 452.045 539.621 442.884L221.132 165.678C216.595 161.689 211.005 159.093 205.029 158.204C199.054 157.314 192.948 158.168 187.446 160.662C181.943 163.157 177.279 167.186 174.01 172.267C170.741 177.347 169.008 183.263 169.019 189.305V418.405C169.031 422.9 170.003 427.342 171.871 431.431C173.74 435.521 176.461 439.164 179.851 442.116L420.466 650.661C426.192 655.635 433.521 658.374 441.106 658.374C448.691 658.374 456.021 655.635 461.747 650.661L544.569 578.502L706.201 438.619Z" fill="url(#paint4_linear_1_1387)"/>
</g>
<g filter="url(#filter1_d_1_1387)">
<path d="M862.891 365.348C909.075 434.87 979.349 484.848 1060.18 505.657L1133.53 442.113C1139.48 436.918 1143.26 429.669 1144.11 421.812V189.215C1144.16 183.881 1142.83 178.624 1140.24 173.959C1137.66 169.294 1133.9 165.381 1129.35 162.604C1128.77 162.231 1128.17 161.889 1127.56 161.58L1125.09 160.386C1123.48 159.718 1121.83 159.176 1120.14 158.765L1117.58 158.254H1115.62H1114.85C1111.99 158.048 1109.11 158.278 1106.32 158.936H1104.96H1103.68L1102.4 159.362L1100.44 160.215C1099.79 160.477 1099.16 160.79 1098.56 161.154L1096.09 162.604L1094.38 163.798C1093.78 164.309 1093.1 164.736 1092.5 165.333L1085.17 171.645L862.891 365.348Z" fill="url(#paint5_linear_1_1387)"/>
</g>
<g filter="url(#filter2_d_1_1387)">
<path fill-rule="evenodd" clip-rule="evenodd" d="M1144.11 189.469V418.483C1144.11 419.823 1144.02 421.157 1143.85 422.479V421.808C1143.01 429.665 1139.23 436.914 1133.28 442.108L919.101 627.879V629.248L872.371 669.996H513.645L919.104 316.813L1091.82 165.757C1096.37 161.746 1101.99 159.136 1107.98 158.239C1113.98 157.343 1120.11 158.198 1125.64 160.703C1131.16 163.208 1135.84 167.256 1139.12 172.359C1142.4 177.462 1144.13 183.404 1144.11 189.469ZM447.256 850.193V971.616C447.246 977.657 448.979 983.573 452.248 988.654C455.517 993.734 460.183 997.764 465.685 1000.26C471.188 1002.75 477.292 1003.61 483.267 1002.72C489.242 1001.83 494.835 999.232 499.372 995.242L665.718 850.193H447.256Z" fill="url(#paint6_linear_1_1387)"/>
</g>
<path d="M321.012 765.648C321.012 767.852 320.87 769.844 320.586 771.622H275.674C276.029 776.316 277.772 780.085 280.901 782.93C284.03 785.775 287.871 787.197 292.422 787.197C298.965 787.197 303.588 784.459 306.291 778.983H319.412C317.634 784.388 314.398 788.833 309.704 792.318C305.082 795.731 299.321 797.438 292.422 797.438C286.804 797.438 281.754 796.194 277.274 793.705C272.864 791.144 269.379 787.588 266.819 783.037C264.33 778.414 263.085 773.08 263.085 767.035C263.085 760.989 264.294 755.691 266.712 751.139C269.202 746.516 272.651 742.96 277.06 740.471C281.541 737.982 286.662 736.738 292.422 736.738C297.97 736.738 302.912 737.947 307.251 740.365C311.589 742.783 314.967 746.196 317.385 750.606C319.803 754.944 321.012 759.958 321.012 765.648ZM308.318 761.807C308.246 757.327 306.646 753.735 303.517 751.033C300.388 748.33 296.512 746.979 291.889 746.979C287.693 746.979 284.101 748.33 281.114 751.033C278.127 753.664 276.349 757.256 275.78 761.807H308.318ZM512.95 722.336V796.478H500.788V745.699L478.172 796.478H469.744L447.021 745.699V796.478H434.86V722.336H447.981L474.011 780.476L499.935 722.336H512.95ZM675.512 781.33H644.468L639.134 796.478H626.439L653.003 722.229H667.084L693.648 796.478H680.846L675.512 781.33ZM672.098 771.408L660.044 736.951L647.882 771.408H672.098ZM860.737 743.672C858.816 739.973 856.149 737.2 852.736 735.351C849.322 733.43 845.375 732.47 840.894 732.47C835.987 732.47 831.613 733.573 827.773 735.777C823.932 737.982 820.909 741.111 818.705 745.165C816.571 749.219 815.504 753.913 815.504 759.247C815.504 764.581 816.571 769.31 818.705 773.435C820.909 777.489 823.932 780.618 827.773 782.823C831.613 785.028 835.987 786.13 840.894 786.13C847.508 786.13 852.878 784.281 857.003 780.583C861.128 776.885 863.653 771.871 864.577 765.541H836.734V755.833H877.592V765.328C876.81 771.088 874.747 776.387 871.405 781.223C868.133 786.059 863.83 789.935 858.496 792.851C853.233 795.696 847.366 797.118 840.894 797.118C833.924 797.118 827.559 795.518 821.798 792.318C816.038 789.046 811.451 784.53 808.037 778.769C804.694 773.009 803.023 766.501 803.023 759.247C803.023 751.993 804.694 745.485 808.037 739.725C811.451 733.964 816.038 729.483 821.798 726.283C827.63 723.011 833.996 721.376 840.894 721.376C848.788 721.376 855.794 723.331 861.91 727.243C868.098 731.083 872.578 736.56 875.352 743.672H860.737ZM1003.2 785.917H1037.66V796.478H988.799V786.984L1023.15 732.897H988.799V722.336H1037.66V731.83L1003.2 785.917Z" fill="url(#paint7_linear_1_1387)"/>
<path d="M661.034 1348.59H1350.08V633.294M-28.0101 633.294V-82H661.034" stroke="url(#paint8_linear_1_1387)" stroke-width="13.1247"/>
<path d="M441.45 364.415C395.969 432.736 326.865 481.862 247.392 502.368L175.355 439.891C169.443 434.782 165.696 427.617 164.872 419.848V191.575C164.844 186.314 166.172 181.135 168.728 176.538C171.284 171.94 174.981 168.078 179.464 165.326L181.141 164.403L183.657 163.229C185.201 162.561 186.801 162.028 188.437 161.636H190.953H192.882H193.637C196.45 161.387 199.285 161.614 202.023 162.307H203.365L204.623 162.726H205.965L207.809 163.481L209.738 164.403C210.585 164.845 211.398 165.35 212.17 165.913L213.848 167.087L215.693 168.512L222.905 174.802L441.45 364.415Z" fill="url(#paint9_linear_1_1387)"/>
<path d="M872.015 364.415C917.481 432.715 986.55 481.836 1065.99 502.368L1138.03 439.891C1143.9 434.757 1147.64 427.605 1148.51 419.848V191.575C1148.63 186.29 1147.38 181.064 1144.88 176.405C1142.38 171.746 1138.72 167.814 1134.25 164.991L1132.49 164.068L1130.06 162.894C1128.51 162.238 1126.91 161.705 1125.28 161.301H1122.68H1120.83H1120C1117.18 161.052 1114.35 161.279 1111.61 161.972H1110.35L1109.01 162.391H1107.75L1105.82 163.146L1103.98 164.068C1103.12 164.491 1102.31 164.997 1101.55 165.578L1099.78 166.752L1098.02 168.178L1090.81 174.467L872.015 364.415Z" fill="url(#paint10_linear_1_1387)"/>
<rect x="180" y="266" width="202" height="315" fill="#C4C4C4"/>
<rect x="183" y="266" width="929" height="727" fill="#C4C4C4"/>
<rect x="180" y="593" width="123" height="54" fill="#C4C4C4"/>
<rect x="180" y="1050" width="79" height="29" fill="#C4C4C4"/>
</g>
<defs>
<filter id="filter0_d_1_1387" x="135.474" y="157.862" width="604.272" height="567.603" filterUnits="userSpaceOnUse" color-interpolation-filters="sRGB">
<feFlood flood-opacity="0" result="BackgroundImageFix"/>
<feColorMatrix in="SourceAlpha" type="matrix" values="0 0 0 0 0 0 0 0 0 0 0 0 0 0 0 0 0 0 127 0" result="hardAlpha"/>
<feOffset dy="33.5449"/>
<feGaussianBlur stdDeviation="16.7724"/>
<feColorMatrix type="matrix" values="0 0 0 0 0 0 0 0 0 0 0 0 0 0 0 0 0 0 0.25 0"/>
<feBlend mode="normal" in2="BackgroundImageFix" result="effect1_dropShadow_1_1387"/>
<feBlend mode="normal" in="SourceGraphic" in2="effect1_dropShadow_1_1387" result="shape"/>
</filter>
<filter id="filter1_d_1_1387" x="843.923" y="158.181" width="319.153" height="456.543" filterUnits="userSpaceOnUse" color-interpolation-filters="sRGB">
<feFlood flood-opacity="0" result="BackgroundImageFix"/>
<feColorMatrix in="SourceAlpha" type="matrix" values="0 0 0 0 0 0 0 0 0 0 0 0 0 0 0 0 0 0 127 0" result="hardAlpha"/>
<feOffset dy="90.0985"/>
<feGaussianBlur stdDeviation="9.48406"/>
<feColorMatrix type="matrix" values="0 0 0 0 0 0 0 0 0 0 0 0 0 0 0 0 0 0 0.25 0"/>
<feBlend mode="normal" in2="BackgroundImageFix" result="effect1_dropShadow_1_1387"/>
<feBlend mode="normal" in="SourceGraphic" in2="effect1_dropShadow_1_1387" result="shape"/>
</filter>
<filter id="filter2_d_1_1387" x="413.711" y="157.893" width="763.943" height="912.255" filterUnits="userSpaceOnUse" color-interpolation-filters="sRGB">
<feFlood flood-opacity="0" result="BackgroundImageFix"/>
<feColorMatrix in="SourceAlpha" type="matrix" values="0 0 0 0 0 0 0 0 0 0 0 0 0 0 0 0 0 0 127 0" result="hardAlpha"/>
<feOffset dy="33.5449"/>
<feGaussianBlur stdDeviation="16.7724"/>
<feColorMatrix type="matrix" values="0 0 0 0 0 0 0 0 0 0 0 0 0 0 0 0 0 0 0.25 0"/>
<feBlend mode="normal" in2="BackgroundImageFix" result="effect1_dropShadow_1_1387"/>
<feBlend mode="normal" in="SourceGraphic" in2="effect1_dropShadow_1_1387" result="shape"/>
</filter>
<linearGradient id="paint0_linear_1_1387" x1="1031.78" y1="213.616" x2="1031.78" y2="1068.03" gradientUnits="userSpaceOnUse">
<stop offset="0.37" stop-color="#3C83E6"/>
<stop offset="1" stop-color="#3FD9D2"/>
</linearGradient>
<linearGradient id="paint1_linear_1_1387" x1="1031.78" y1="213.616" x2="1031.78" y2="1068.03" gradientUnits="userSpaceOnUse">
<stop offset="0.37" stop-color="#3C83E6"/>
<stop offset="1" stop-color="#3FD9D2"/>
</linearGradient>
<linearGradient id="paint2_linear_1_1387" x1="281.684" y1="213.623" x2="281.684" y2="1068.04" gradientUnits="userSpaceOnUse">
<stop offset="0.37" stop-color="#3C83E6"/>
<stop offset="1" stop-color="#3FD9D2"/>
</linearGradient>
<linearGradient id="paint3_linear_1_1387" x1="281.684" y1="213.623" x2="281.684" y2="1068.04" gradientUnits="userSpaceOnUse">
<stop offset="0.37" stop-color="#3C83E6"/>
<stop offset="1" stop-color="#3FD9D2"/>
</linearGradient>
<linearGradient id="paint4_linear_1_1387" x1="173.226" y1="180.675" x2="668.231" y2="654.876" gradientUnits="userSpaceOnUse">
<stop stop-color="#3C83E6"/>
<stop offset="1" stop-color="#3FD9D2"/>
</linearGradient>
<linearGradient id="paint5_linear_1_1387" x1="1.48797e+06" y1="118342" x2="1.48541e+06" y2="118342" gradientUnits="userSpaceOnUse">
<stop stop-color="#3AA1E2"/>
<stop offset="0.14" stop-color="white" stop-opacity="0.83"/>
<stop offset="0.44" stop-color="white" stop-opacity="0.48"/>
<stop offset="0.69" stop-color="white" stop-opacity="0.22"/>
<stop offset="0.89" stop-color="white" stop-opacity="0.06"/>
<stop offset="1" stop-color="#F7F7F7" stop-opacity="0"/>
</linearGradient>
<linearGradient id="paint6_linear_1_1387" x1="436.96" y1="886.956" x2="1122.35" y2="301.931" gradientUnits="userSpaceOnUse">
<stop stop-color="#3FD9D2"/>
<stop offset="0.23" stop-color="#3FD6D3"/>
<stop offset="0.43" stop-color="#3FCBD5"/>
<stop offset="0.61" stop-color="#3EB9D9"/>
<stop offset="0.79" stop-color="#3DA0DF"/>
<stop offset="0.95" stop-color="#3C83E6"/>
</linearGradient>
<linearGradient id="paint7_linear_1_1387" x1="265.341" y1="686.827" x2="334.548" y2="990.244" gradientUnits="userSpaceOnUse">
<stop stop-color="#3C83E6"/>
<stop offset="1" stop-color="#3FD9D2"/>
</linearGradient>
<linearGradient id="paint8_linear_1_1387" x1="1370.44" y1="1152.06" x2="195.733" y2="-19.4024" gradientUnits="userSpaceOnUse">
<stop stop-color="#3FD9D2"/>
<stop offset="0.23" stop-color="#3FD6D3"/>
<stop offset="0.43" stop-color="#3FCBD5"/>
<stop offset="0.61" stop-color="#3EB9D9"/>
<stop offset="0.79" stop-color="#3DA0DF"/>
<stop offset="0.95" stop-color="#3C83E6"/>
</linearGradient>
<linearGradient id="paint9_linear_1_1387" x1="167.313" y1="331.535" x2="243.662" y2="331.535" gradientUnits="userSpaceOnUse">
<stop stop-color="#3FD9D2"/>
<stop offset="0.25" stop-color="#3FD9D2" stop-opacity="0.69"/>
<stop offset="0.51" stop-color="#3FD9D2" stop-opacity="0.39"/>
<stop offset="0.73" stop-color="#3FD9D2" stop-opacity="0.18"/>
<stop offset="0.9" stop-color="#3FD9D2" stop-opacity="0.05"/>
<stop offset="1" stop-color="#3FD9D2" stop-opacity="0"/>
</linearGradient>
<linearGradient id="paint10_linear_1_1387" x1="1183.81" y1="249.258" x2="944.806" y2="307.962" gradientUnits="userSpaceOnUse">
<stop stop-color="#004F92"/>
<stop offset="1" stop-color="#40D7D3" stop-opacity="0.13"/>
</linearGradient>
</defs>
</svg>
